  0
SECTION
  2
BLOCKS
  0
ENDSEC
  0
SECTION
  2
ENTITIES
  0
LINE
  8
0
 10
36.4895
 20
32.7821
 11
36.9706
 21
32.8778
  0
LINE
  8
0
 10
36.9706
 20
32.8778
 11
37.4351
 21
33.0354
  0
LINE
  8
0
 10
37.4351
 20
33.0354
 11
37.875
 21
33.2524
  0
LINE
  8
0
 10
37.875
 20
33.2524
 11
38.2829
 21
33.5249
  0
LINE
  8
0
 10
38.2829
 20
33.5249
 11
38.6516
 21
33.8483
  0
LINE
  8
0
 10
38.6516
 20
33.8483
 11
38.9751
 21
34.2171
  0
LINE
  8
0
 10
38.9751
 20
34.2171
 11
39.2476
 21
34.625
  0
LINE
  8
0
 10
39.2476
 20
34.625
 11
39.4645
 21
35.0649
  0
LINE
  8
0
 10
39.4645
 20
35.0649
 11
39.6222
 21
35.5294
  0
LINE
  8
0
 10
39.6222
 20
35.5294
 11
39.7179
 21
36.0105
  0
LINE
  8
0
 10
39.7179
 20
36.0105
 11
39.75
 21
36.5
  0
LINE
  8
0
 10
39.75
 20
36.5
 11
39.75
 21
44
  0
LINE
  8
0
 10
39.75
 20
44
 11
39.7089
 21
44.784
  0
LINE
  8
0
 10
39.7089
 20
44.784
 11
39.5861
 21
45.5593
  0
LINE
  8
0
 10
39.5861
 20
45.5593
 11
39.3829
 21
46.3176
  0
LINE
  8
0
 10
39.3829
 20
46.3176
 11
39.1016
 21
47.0505
  0
LINE
  8
0
 10
39.1016
 20
47.0505
 11
38.7452
 21
47.75
  0
LINE
  8
0
 10
38.7452
 20
47.75
 11
38.3176
 21
48.4084
  0
LINE
  8
0
 10
38.3176
 20
48.4084
 11
37.8236
 21
49.0185
  0
LINE
  8
0
 10
37.8236
 20
49.0185
 11
37.2685
 21
49.5736
  0
LINE
  8
0
 10
37.2685
 20
49.5736
 11
36.6584
 21
50.0676
  0
LINE
  8
0
 10
36.6584
 20
50.0676
 11
36
 21
50.4952
  0
LINE
  8
0
 10
36
 20
50.4952
 11
35.3005
 21
50.8516
  0
LINE
  8
0
 10
35.3005
 20
50.8516
 11
34.5676
 21
51.1329
  0
LINE
  8
0
 10
34.5676
 20
51.1329
 11
33.8093
 21
51.3361
  0
LINE
  8
0
 10
33.8093
 20
51.3361
 11
33.034
 21
51.4589
  0
LINE
  8
0
 10
33.034
 20
51.4589
 11
32.25
 21
51.5
  0
LINE
  8
0
 10
32.25
 20
51.5
 11
31.466
 21
51.4589
  0
LINE
  8
0
 10
31.466
 20
51.4589
 11
30.6907
 21
51.3361
  0
LINE
  8
0
 10
30.6907
 20
51.3361
 11
29.9324
 21
51.1329
  0
LINE
  8
0
 10
29.9324
 20
51.1329
 11
29.1995
 21
50.8516
  0
LINE
  8
0
 10
29.1995
 20
50.8516
 11
28.5
 21
50.4952
  0
LINE
  8
0
 10
28.5
 20
50.4952
 11
27.8416
 21
50.0676
  0
LINE
  8
0
 10
27.8416
 20
50.0676
 11
27.2315
 21
49.5736
  0
LINE
  8
0
 10
27.2315
 20
49.5736
 11
27.1932
 21
49.5352
  0
LINE
  8
0
 10
27.1932
 20
49.5352
 11
15.4741
 21
54.049
  0
LINE
  8
0
 10
15.4741
 20
54.049
 11
14.3992
 21
54.4616
  0
LINE
  8
0
 10
14.3992
 20
54.4616
 11
13.287
 21
54.7596
  0
LINE
  8
0
 10
13.287
 20
54.7596
 11
12.1498
 21
54.9397
  0
LINE
  8
0
 10
12.1498
 20
54.9397
 11
11
 21
55
  0
LINE
  8
0
 10
11
 20
55
 11
9.85017
 21
54.9397
  0
LINE
  8
0
 10
9.85017
 20
54.9397
 11
8.71297
 21
54.7596
  0
LINE
  8
0
 10
8.71297
 20
54.7596
 11
7.6008
 21
54.4616
  0
LINE
  8
0
 10
7.6008
 20
54.4616
 11
6.52589
 21
54.049
  0
LINE
  8
0
 10
6.52589
 20
54.049
 11
5.5
 21
53.5263
  0
LINE
  8
0
 10
5.5
 20
53.5263
 11
4.53436
 21
52.8992
  0
LINE
  8
0
 10
4.53436
 20
52.8992
 11
3.63956
 21
52.1746
  0
LINE
  8
0
 10
3.63956
 20
52.1746
 11
2.82539
 21
51.3604
  0
LINE
  8
0
 10
2.82539
 20
51.3604
 11
2.1008
 21
50.4656
  0
LINE
  8
0
 10
2.1008
 20
50.4656
 11
1.47371
 21
49.5
  0
LINE
  8
0
 10
1.47371
 20
49.5
 11
0.950989
 21
48.4741
  0
LINE
  8
0
 10
0.950989
 20
48.4741
 11
0.538376
 21
47.3992
  0
LINE
  8
0
 10
0.538376
 20
47.3992
 11
0.240372
 21
46.287
  0
LINE
  8
0
 10
0.240372
 20
46.287
 11
0.060257
 21
45.1498
  0
LINE
  8
0
 10
0.060257
 20
45.1498
 11
0
 21
44
  0
LINE
  8
0
 10
0
 20
44
 11
0.060257
 21
42.8502
  0
LINE
  8
0
 10
0.060257
 20
42.8502
 11
0.240372
 21
41.713
  0
LINE
  8
0
 10
0.240372
 20
41.713
 11
0.538376
 21
40.6008
  0
LINE
  8
0
 10
0.538376
 20
40.6008
 11
0.950989
 21
39.5259
  0
LINE
  8
0
 10
0.950989
 20
39.5259
 11
1.47371
 21
38.5
  0
LINE
  8
0
 10
1.47371
 20
38.5
 11
2.1008
 21
37.5344
  0
LINE
  8
0
 10
2.1008
 20
37.5344
 11
2.82539
 21
36.6396
  0
LINE
  8
0
 10
2.82539
 20
36.6396
 11
3.63956
 21
35.8254
  0
LINE
  8
0
 10
3.63956
 20
35.8254
 11
4.53436
 21
35.1008
  0
LINE
  8
0
 10
4.53436
 20
35.1008
 11
5.5
 21
34.4737
  0
LINE
  8
0
 10
5.5
 20
34.4737
 11
6.52589
 21
33.951
  0
LINE
  8
0
 10
6.52589
 20
33.951
 11
7.6008
 21
33.5384
  0
LINE
  8
0
 10
7.6008
 20
33.5384
 11
8.71297
 21
33.2404
  0
LINE
  8
0
 10
8.71297
 20
33.2404
 11
9.85017
 21
33.0603
  0
LINE
  8
0
 10
9.85017
 20
33.0603
 11
11
 21
33
  0
LINE
  8
0
 10
11
 20
33
 11
12.1498
 21
33.0603
  0
LINE
  8
0
 10
12.1498
 20
33.0603
 11
13.287
 21
33.2404
  0
LINE
  8
0
 10
13.287
 20
33.2404
 11
14.3992
 21
33.5384
  0
LINE
  8
0
 10
14.3992
 20
33.5384
 11
15.4741
 21
33.951
  0
LINE
  8
0
 10
15.4741
 20
33.951
 11
27.1932
 21
38.4648
  0
LINE
  8
0
 10
27.1932
 20
38.4648
 11
27.2315
 21
38.4264
  0
LINE
  8
0
 10
27.2315
 20
38.4264
 11
27.8416
 21
37.9324
  0
LINE
  8
0
 10
27.8416
 20
37.9324
 11
33.7171
 21
33.5249
  0
LINE
  8
0
 10
33.7171
 20
33.5249
 11
34.125
 21
33.2524
  0
LINE
  8
0
 10
34.125
 20
33.2524
 11
34.5649
 21
33.0354
  0
LINE
  8
0
 10
34.5649
 20
33.0354
 11
35.0294
 21
32.8778
  0
LINE
  8
0
 10
35.0294
 20
32.8778
 11
35.5105
 21
32.7821
  0
LINE
  8
0
 10
35.5105
 20
32.7821
 11
36
 21
32.75
  0
LINE
  8
0
 10
36
 20
32.75
 11
36.4895
 21
32.7821
  0
LINE
  8
0
 10
12.1498
 20
0.060257
 11
13.287
 21
0.240372
  0
LINE
  8
0
 10
13.287
 20
0.240372
 11
14.3992
 21
0.538376
  0
LINE
  8
0
 10
14.3992
 20
0.538376
 11
15.4741
 21
0.950989
  0
LINE
  8
0
 10
15.4741
 20
0.950989
 11
27.1932
 21
5.46474
  0
LINE
  8
0
 10
27.1932
 20
5.46474
 11
27.2315
 21
5.42641
  0
LINE
  8
0
 10
27.2315
 20
5.42641
 11
27.8416
 21
4.93237
  0
LINE
  8
0
 10
27.8416
 20
4.93237
 11
28.5
 21
4.50481
  0
LINE
  8
0
 10
28.5
 20
4.50481
 11
29.1995
 21
4.14841
  0
LINE
  8
0
 10
29.1995
 20
4.14841
 11
29.9324
 21
3.86707
  0
LINE
  8
0
 10
29.9324
 20
3.86707
 11
30.6907
 21
3.66388
  0
LINE
  8
0
 10
30.6907
 20
3.66388
 11
31.466
 21
3.54108
  0
LINE
  8
0
 10
31.466
 20
3.54108
 11
32.25
 21
3.5
  0
LINE
  8
0
 10
32.25
 20
3.5
 11
33.034
 21
3.54108
  0
LINE
  8
0
 10
33.034
 20
3.54108
 11
33.8093
 21
3.66388
  0
LINE
  8
0
 10
33.8093
 20
3.66388
 11
34.5676
 21
3.86707
  0
LINE
  8
0
 10
34.5676
 20
3.86707
 11
35.3005
 21
4.14841
  0
LINE
  8
0
 10
35.3005
 20
4.14841
 11
36
 21
4.50481
  0
LINE
  8
0
 10
36
 20
4.50481
 11
36.6584
 21
4.93237
  0
LINE
  8
0
 10
36.6584
 20
4.93237
 11
37.2685
 21
5.42641
  0
LINE
  8
0
 10
37.2685
 20
5.42641
 11
37.8236
 21
5.98151
  0
LINE
  8
0
 10
37.8236
 20
5.98151
 11
38.3176
 21
6.5916
  0
LINE
  8
0
 10
38.3176
 20
6.5916
 11
38.7452
 21
7.25
  0
LINE
  8
0
 10
38.7452
 20
7.25
 11
39.1016
 21
7.94946
  0
LINE
  8
0
 10
39.1016
 20
7.94946
 11
39.3829
 21
8.68237
  0
LINE
  8
0
 10
39.3829
 20
8.68237
 11
39.5861
 21
9.44066
  0
LINE
  8
0
 10
39.5861
 20
9.44066
 11
39.7089
 21
10.216
  0
LINE
  8
0
 10
39.7089
 20
10.216
 11
39.75
 21
11
  0
LINE
  8
0
 10
39.75
 20
11
 11
39.75
 21
18.5
  0
LINE
  8
0
 10
39.75
 20
18.5
 11
39.7179
 21
18.9895
  0
LINE
  8
0
 10
39.7179
 20
18.9895
 11
39.6222
 21
19.4706
  0
LINE
  8
0
 10
39.6222
 20
19.4706
 11
39.4645
 21
19.9351
  0
LINE
  8
0
 10
39.4645
 20
19.9351
 11
39.2476
 21
20.375
  0
LINE
  8
0
 10
39.2476
 20
20.375
 11
38.9751
 21
20.7829
  0
LINE
  8
0
 10
38.9751
 20
20.7829
 11
38.6516
 21
21.1516
  0
LINE
  8
0
 10
38.6516
 20
21.1516
 11
38.2829
 21
21.4751
  0
LINE
  8
0
 10
38.2829
 20
21.4751
 11
37.875
 21
21.7476
  0
LINE
  8
0
 10
37.875
 20
21.7476
 11
37.4351
 21
21.9645
  0
LINE
  8
0
 10
37.4351
 20
21.9645
 11
36.9706
 21
22.1222
  0
LINE
  8
0
 10
36.9706
 20
22.1222
 11
36.4895
 21
22.2179
  0
LINE
  8
0
 10
36.4895
 20
22.2179
 11
36
 21
22.25
  0
LINE
  8
0
 10
36
 20
22.25
 11
35.5105
 21
22.2179
  0
LINE
  8
0
 10
35.5105
 20
22.2179
 11
35.0294
 21
22.1222
  0
LINE
  8
0
 10
35.0294
 20
22.1222
 11
34.5649
 21
21.9645
  0
LINE
  8
0
 10
34.5649
 20
21.9645
 11
34.125
 21
21.7476
  0
LINE
  8
0
 10
34.125
 20
21.7476
 11
33.7171
 21
21.4751
  0
LINE
  8
0
 10
33.7171
 20
21.4751
 11
27.8416
 21
17.0676
  0
LINE
  8
0
 10
27.8416
 20
17.0676
 11
27.2315
 21
16.5736
  0
LINE
  8
0
 10
27.2315
 20
16.5736
 11
27.1932
 21
16.5352
  0
LINE
  8
0
 10
27.1932
 20
16.5352
 11
15.4741
 21
21.049
  0
LINE
  8
0
 10
15.4741
 20
21.049
 11
14.3992
 21
21.4616
  0
LINE
  8
0
 10
14.3992
 20
21.4616
 11
13.287
 21
21.7596
  0
LINE
  8
0
 10
13.287
 20
21.7596
 11
12.1498
 21
21.9397
  0
LINE
  8
0
 10
12.1498
 20
21.9397
 11
11
 21
22
  0
LINE
  8
0
 10
11
 20
22
 11
9.85017
 21
21.9397
  0
LINE
  8
0
 10
9.85017
 20
21.9397
 11
8.71297
 21
21.7596
  0
LINE
  8
0
 10
8.71297
 20
21.7596
 11
7.6008
 21
21.4616
  0
LINE
  8
0
 10
7.6008
 20
21.4616
 11
6.52589
 21
21.049
  0
LINE
  8
0
 10
6.52589
 20
21.049
 11
5.5
 21
20.5263
  0
LINE
  8
0
 10
5.5
 20
20.5263
 11
4.53436
 21
19.8992
  0
LINE
  8
0
 10
4.53436
 20
19.8992
 11
3.63956
 21
19.1746
  0
LINE
  8
0
 10
3.63956
 20
19.1746
 11
2.82539
 21
18.3604
  0
LINE
  8
0
 10
2.82539
 20
18.3604
 11
2.1008
 21
17.4656
  0
LINE
  8
0
 10
2.1008
 20
17.4656
 11
1.47371
 21
16.5
  0
LINE
  8
0
 10
1.47371
 20
16.5
 11
0.950989
 21
15.4741
  0
LINE
  8
0
 10
0.950989
 20
15.4741
 11
0.538376
 21
14.3992
  0
LINE
  8
0
 10
0.538376
 20
14.3992
 11
0.240372
 21
13.287
  0
LINE
  8
0
 10
0.240372
 20
13.287
 11
0.060257
 21
12.1498
  0
LINE
  8
0
 10
0.060257
 20
12.1498
 11
0
 21
11
  0
LINE
  8
0
 10
0
 20
11
 11
0.060257
 21
9.85017
  0
LINE
  8
0
 10
0.060257
 20
9.85017
 11
0.240372
 21
8.71297
  0
LINE
  8
0
 10
0.240372
 20
8.71297
 11
0.538376
 21
7.6008
  0
LINE
  8
0
 10
0.538376
 20
7.6008
 11
0.950989
 21
6.52589
  0
LINE
  8
0
 10
0.950989
 20
6.52589
 11
1.47371
 21
5.5
  0
LINE
  8
0
 10
1.47371
 20
5.5
 11
2.1008
 21
4.53436
  0
LINE
  8
0
 10
2.1008
 20
4.53436
 11
2.82539
 21
3.63956
  0
LINE
  8
0
 10
2.82539
 20
3.63956
 11
3.63956
 21
2.82539
  0
LINE
  8
0
 10
3.63956
 20
2.82539
 11
4.53436
 21
2.1008
  0
LINE
  8
0
 10
4.53436
 20
2.1008
 11
5.5
 21
1.47371
  0
LINE
  8
0
 10
5.5
 20
1.47371
 11
6.52589
 21
0.950989
  0
LINE
  8
0
 10
6.52589
 20
0.950989
 11
7.6008
 21
0.538376
  0
LINE
  8
0
 10
7.6008
 20
0.538376
 11
8.71297
 21
0.240372
  0
LINE
  8
0
 10
8.71297
 20
0.240372
 11
9.85017
 21
0.060257
  0
LINE
  8
0
 10
9.85017
 20
0.060257
 11
11
 21
0
  0
LINE
  8
0
 10
11
 20
0
 11
12.1498
 21
0.060257
  0
ENDSEC
  0
SECTION
  2
OBJECTS
  0
DICTIONARY
  0
ENDSEC
  0
EOF
